<?xml version="1.0" encoding="utf-8"?>
<!-- Generator: Adobe Illustrator 16.0.0, SVG Export Plug-In . SVG Version: 6.00 Build 0)  -->
<!DOCTYPE svg PUBLIC "-//W3C//DTD SVG 1.1//EN" "http://www.w3.org/Graphics/SVG/1.1/DTD/svg11.dtd">
<svg version="1.1" id="Layer_1" xmlns="http://www.w3.org/2000/svg" xmlns:xlink="http://www.w3.org/1999/xlink" x="0px" y="0px"
	 width="260px" height="260px" viewBox="0 0 260 260" enable-background="new 0 0 260 260" xml:space="preserve">
<g>
	<g>
		<path fill="#FFFFFF" d="M203.85,143.524c3.573,3.572,7.807,5.358,12.703,5.358c3.048,0,5.671-0.512,7.87-1.537
			c2.198-1.023,4.497-2.66,6.895-4.909l5.696,5.846c-5.546,6.146-12.28,9.219-20.198,9.219c-7.92,0-14.492-2.548-19.713-7.645
			s-7.832-11.542-7.832-19.337c0-7.794,2.661-14.289,7.983-19.485c5.32-5.197,12.04-7.795,20.16-7.795
			c8.119,0,14.901,2.998,20.348,8.993l-5.619,6.146c-2.499-2.398-4.859-4.071-7.084-5.021c-2.224-0.949-4.834-1.425-7.832-1.425
			c-5.297,0-9.742,1.713-13.341,5.134c-3.598,3.423-5.396,7.795-5.396,13.115C198.491,135.505,200.277,139.952,203.85,143.524z"/>
		<path fill="#666666" d="M217.414,103.239c8.119,0,14.901,2.998,20.348,8.993l-5.619,6.146c-2.499-2.398-4.859-4.071-7.084-5.021
			c-2.224-0.949-4.834-1.425-7.832-1.425c-5.297,0-9.742,1.713-13.341,5.134c-3.598,3.423-5.396,7.795-5.396,13.115
			c0.002,5.323,1.788,9.771,5.36,13.343c3.573,3.572,7.807,5.358,12.703,5.358c3.048,0,5.671-0.512,7.87-1.537
			c2.198-1.023,4.497-2.66,6.895-4.909l5.696,5.846c-5.546,6.146-12.28,9.219-20.198,9.219c-7.92,0-14.492-2.548-19.713-7.645
			s-7.832-11.542-7.832-19.337c0-7.794,2.661-14.289,7.983-19.485C202.574,105.837,209.294,103.239,217.414,103.239 M217.414,99.184
			c-9.178,0-16.914,3.01-22.993,8.948c-6.109,5.964-9.206,13.497-9.206,22.388c0,8.892,3.047,16.375,9.056,22.239
			c5.979,5.838,13.564,8.799,22.545,8.799c9.078,0,16.887-3.553,23.209-10.558l2.549-2.824l-2.654-2.724l-5.696-5.847l-2.776-2.85
			l-2.903,2.723c-2.074,1.945-4.037,3.355-5.83,4.19c-1.651,0.769-3.724,1.157-6.16,1.157c-3.812,0-7.029-1.364-9.834-4.17
			c-2.807-2.806-4.172-6.231-4.173-10.476c0-4.198,1.352-7.527,4.136-10.176c2.842-2.702,6.291-4.016,10.545-4.016
			c2.433,0,4.532,0.369,6.241,1.098c1.76,0.752,3.732,2.171,5.866,4.218l2.998,2.877l2.804-3.066l5.62-6.145l2.494-2.729
			l-2.486-2.736C234.543,102.656,226.687,99.184,217.414,99.184L217.414,99.184z"/>
	</g>
	<g>
		<polygon fill="#FFFFFF" points="79.939,156.902 71.095,156.902 71.095,115.98 52.808,152.331 47.861,152.331 29.649,115.98 
			29.649,156.902 20.806,156.902 20.806,104.515 34.596,104.515 50.41,137.415 66.225,104.515 79.939,104.515 79.939,156.902 		"/>
		<path fill="#666666" d="M79.939,104.515v52.388h-8.844V115.98l-18.287,36.351h-4.947L29.649,115.98v40.922h-8.843v-52.388h13.79
			l15.814,32.9l15.814-32.9H79.939 M83.995,100.458h-4.056H66.225h-2.552l-1.104,2.299L50.41,128.053l-12.159-25.296l-1.105-2.299
			h-2.551h-13.79H16.75v4.057v52.388v4.056h4.056h8.843h4.056v-4.056v-23.771l10.53,21.017l1.122,2.238h2.504h4.947h2.5l1.124-2.232
			l10.607-21.085v23.834v4.056h4.056h8.844h4.056v-4.056v-52.388V100.458L83.995,100.458z"/>
	</g>
	<g>
		<polygon fill="#FFFFFF" points="188.944,112.608 173.056,112.608 173.056,156.902 164.211,156.902 164.211,112.608 
			148.323,112.608 148.323,104.515 188.943,104.515 188.944,112.608 		"/>
		<path fill="#666666" d="M188.943,104.515l0.001,8.094h-15.889v44.294h-8.845v-44.294h-15.888v-8.094H188.943 M192.999,100.458
			h-4.056h-40.62h-4.057v4.057v8.094v4.056h4.057h11.832v40.238v4.056h4.056h8.845h4.056v-4.056v-40.238h11.833h4.058L193,112.608
			v-8.095L192.999,100.458L192.999,100.458z"/>
	</g>
	<g>
		<path fill="#FDB515" d="M147.155,112.512c-6.023-10.322-17.214-17.259-30.03-17.259c-15.544,0-28.704,10.209-33.144,24.287
			c-1.041,3.301-1.604,6.816-1.604,10.46c0,3.646,0.562,7.158,1.604,10.46c4.44,14.076,17.599,24.287,33.144,24.287
			c12.816,0,24.008-6.938,30.03-17.258c2.999-5.139,4.719-11.111,4.719-17.489C151.874,123.623,150.154,117.649,147.155,112.512z"/>
		<g>
			<path fill="#FFFFFF" d="M117.123,99.874c-16.61,0-30.123,13.513-30.123,30.123c0,16.613,13.513,30.128,30.123,30.128
				c16.613,0,30.128-13.516,30.128-30.128C147.251,113.387,133.736,99.874,117.123,99.874z M117.123,154.628
				c-13.578,0-24.625-11.048-24.625-24.631c0-13.577,11.047-24.624,24.625-24.624c13.581,0,24.63,11.047,24.63,24.624
				C141.753,143.58,130.704,154.628,117.123,154.628z"/>
			<path fill="#FFFFFF" d="M127.896,130.353c-0.73-0.44-1.789-0.833-3.172-1.194c1.296-0.44,2.326-1,3.104-1.685
				c0.783-0.685,1.385-1.468,1.799-2.359c0.416-0.891,0.623-1.83,0.623-2.819c0-1.362-0.389-2.615-1.172-3.769
				c-0.788-1.135-1.923-1.997-3.383-2.615c-0.566-0.244-1.239-0.42-1.974-0.552v-5.301h-4.991v4.929h-3.205v-4.929h-4.99v4.929
				h-7.619v4.15h1.172c0.77,0,1.297,0.083,1.566,0.216c0.278,0.133,0.47,0.337,0.581,0.588c0.11,0.234,0.168,0.808,0.168,1.703
				v16.741c0,0.876-0.058,1.43-0.168,1.689c-0.111,0.254-0.303,0.439-0.581,0.571s-0.797,0.206-1.566,0.206h-1.172v4.151h7.619
				v4.939h4.99v-4.939h2.836c0.119,0,0.244,0,0.368,0v4.939h4.992v-5.351c0.841-0.166,1.571-0.374,2.199-0.628
				c1.735-0.709,3.056-1.737,3.993-3.073c0.956-1.336,1.419-2.793,1.419-4.391c0-1.331-0.301-2.546-0.92-3.622
				C129.793,131.79,128.951,130.948,127.896,130.353z M113.705,119.867h3.229c1.884,0,3.199,0.108,3.924,0.342
				c0.746,0.244,1.305,0.636,1.687,1.194c0.386,0.548,0.576,1.233,0.576,2.007c0,0.764-0.206,1.439-0.612,2.017
				c-0.404,0.578-1.011,1.008-1.816,1.301c-0.816,0.295-2.057,0.43-3.758,0.451h-3.228L113.705,119.867L113.705,119.867
				L113.705,119.867z M122.832,138.391c-0.58,0.732-1.277,1.233-2.104,1.467c-0.815,0.246-1.852,0.354-3.103,0.354h-2.156
				c-0.717,0-1.148-0.029-1.311-0.108c-0.165-0.088-0.283-0.216-0.352-0.421c-0.053-0.146-0.081-0.686-0.101-1.614v-6.491h3.811
				c1.671,0,2.916,0.156,3.73,0.469c0.818,0.314,1.428,0.784,1.837,1.4c0.413,0.617,0.611,1.36,0.611,2.261
				C123.694,136.745,123.41,137.646,122.832,138.391z"/>
		</g>
	</g>
</g>
</svg>
